<?xml version="1.0" encoding="UTF-8" standalone="no"?>
<!-- Created with Inkscape (http://www.inkscape.org/) -->

<svg
   xmlns:dc="http://purl.org/dc/elements/1.1/"
   xmlns:cc="http://creativecommons.org/ns#"
   xmlns:rdf="http://www.w3.org/1999/02/22-rdf-syntax-ns#"
   xmlns:svg="http://www.w3.org/2000/svg"
   xmlns="http://www.w3.org/2000/svg"
   xmlns:sodipodi="http://sodipodi.sourceforge.net/DTD/sodipodi-0.dtd"
   xmlns:inkscape="http://www.inkscape.org/namespaces/inkscape"
   width="512"
   height="512"
   viewBox="0 0 135.46666 135.46667"
   version="1.1"
   id="svg8"
   sodipodi:docname="camp-manager.svg"
   inkscape:version="0.92.4 (5da689c313, 2019-01-14)"
   inkscape:export-filename="E:\Documenti\WebstormProjects\camp-manager\src\assets\camp-manager.png"
   inkscape:export-xdpi="96"
   inkscape:export-ydpi="96"
   enable-background="new">
  <defs
     id="defs2">
    <clipPath
       clipPathUnits="userSpaceOnUse"
       id="clipPath870">
      <circle
         style="display:inline;opacity:1;fill:#ecc94b;fill-opacity:1;stroke-width:0.26684248"
         id="circle872"
         cx="106.60818"
         cy="133.70531"
         r="67.752235" />
    </clipPath>
    <clipPath
       clipPathUnits="userSpaceOnUse"
       id="clipPath874">
      <circle
         style="display:inline;opacity:1;fill:#ecc94b;fill-opacity:1;stroke-width:0.26684248"
         id="circle876"
         cx="106.60818"
         cy="133.70531"
         r="67.752235" />
    </clipPath>
    <clipPath
       clipPathUnits="userSpaceOnUse"
       id="clipPath878">
      <circle
         style="display:inline;opacity:1;fill:#ecc94b;fill-opacity:1;stroke-width:0.26684248"
         id="circle880"
         cx="106.60818"
         cy="133.70531"
         r="67.752235" />
    </clipPath>
    <clipPath
       clipPathUnits="userSpaceOnUse"
       id="clipPath882">
      <circle
         style="display:inline;opacity:1;fill:#ecc94b;fill-opacity:1;stroke-width:1.00853848"
         id="circle884"
         cx="256.07141"
         cy="256.00357"
         r="256.07144" />
    </clipPath>
    <clipPath
       clipPathUnits="userSpaceOnUse"
       id="clipPath886">
      <circle
         style="display:inline;opacity:1;fill:#ecc94b;fill-opacity:1;stroke-width:1.00853848"
         id="circle888"
         cx="256.07141"
         cy="256.00357"
         r="256.07144" />
    </clipPath>
    <clipPath
       clipPathUnits="userSpaceOnUse"
       id="clipPath890">
      <circle
         style="display:inline;opacity:1;fill:#ecc94b;fill-opacity:1;stroke-width:1.00853848"
         id="circle892"
         cx="256.07141"
         cy="256.00357"
         r="256.07144" />
    </clipPath>
    <clipPath
       clipPathUnits="userSpaceOnUse"
       id="clipPath894">
      <circle
         style="display:inline;opacity:1;fill:#ecc94b;fill-opacity:1;stroke-width:1.00853848"
         id="circle896"
         cx="256.07141"
         cy="256.00357"
         r="256.07144" />
    </clipPath>
    <clipPath
       clipPathUnits="userSpaceOnUse"
       id="clipPath898">
      <circle
         style="display:inline;opacity:1;fill:#ecc94b;fill-opacity:1;stroke-width:1.00853848"
         id="circle900"
         cx="256.07141"
         cy="256.00357"
         r="256.07144" />
    </clipPath>
    <clipPath
       clipPathUnits="userSpaceOnUse"
       id="clipPath902">
      <circle
         style="display:inline;opacity:1;fill:#ecc94b;fill-opacity:1;stroke-width:1.00853848"
         id="circle904"
         cx="256.07141"
         cy="256.00357"
         r="256.07144" />
    </clipPath>
    <clipPath
       clipPathUnits="userSpaceOnUse"
       id="clipPath906">
      <circle
         style="display:inline;opacity:1;fill:#ecc94b;fill-opacity:1;stroke-width:1.00853848"
         id="circle908"
         cx="256.07141"
         cy="256.00357"
         r="256.07144" />
    </clipPath>
    <clipPath
       clipPathUnits="userSpaceOnUse"
       id="clipPath910">
      <circle
         style="display:inline;opacity:1;fill:#ecc94b;fill-opacity:1;stroke-width:1.00853848"
         id="circle912"
         cx="256.07141"
         cy="256.00357"
         r="256.07144" />
    </clipPath>
    <clipPath
       clipPathUnits="userSpaceOnUse"
       id="clipPath914">
      <circle
         style="display:inline;opacity:1;fill:#ecc94b;fill-opacity:1;stroke-width:1.00853848"
         id="circle916"
         cx="256.07141"
         cy="256.00357"
         r="256.07144" />
    </clipPath>
    <clipPath
       clipPathUnits="userSpaceOnUse"
       id="clipPath918">
      <circle
         style="display:inline;opacity:1;fill:#ecc94b;fill-opacity:1;stroke-width:1.00853848"
         id="circle920"
         cx="256.07141"
         cy="256.00357"
         r="256.07144" />
    </clipPath>
    <clipPath
       clipPathUnits="userSpaceOnUse"
       id="clipPath922">
      <circle
         style="display:inline;opacity:1;fill:#ecc94b;fill-opacity:1;stroke-width:1.00853848"
         id="circle924"
         cx="256.07141"
         cy="256.00357"
         r="256.07144" />
    </clipPath>
    <clipPath
       clipPathUnits="userSpaceOnUse"
       id="clipPath926">
      <circle
         style="display:inline;opacity:1;fill:#ecc94b;fill-opacity:1;stroke-width:1.00853848"
         id="circle928"
         cx="256.07141"
         cy="256.00357"
         r="256.07144" />
    </clipPath>
    <clipPath
       clipPathUnits="userSpaceOnUse"
       id="clipPath930">
      <circle
         style="display:inline;opacity:1;fill:#ecc94b;fill-opacity:1;stroke-width:1.00853848"
         id="circle932"
         cx="256.07141"
         cy="256.00357"
         r="256.07144" />
    </clipPath>
    <clipPath
       clipPathUnits="userSpaceOnUse"
       id="clipPath934">
      <circle
         style="display:inline;opacity:1;fill:#ecc94b;fill-opacity:1;stroke-width:1.00853848"
         id="circle936"
         cx="256.07141"
         cy="256.00357"
         r="256.07144" />
    </clipPath>
    <clipPath
       clipPathUnits="userSpaceOnUse"
       id="clipPath938">
      <circle
         style="display:inline;opacity:1;fill:#ecc94b;fill-opacity:1;stroke-width:1.00853848"
         id="circle940"
         cx="256.07141"
         cy="256.00357"
         r="256.07144" />
    </clipPath>
    <clipPath
       clipPathUnits="userSpaceOnUse"
       id="clipPath942">
      <circle
         style="display:inline;opacity:1;fill:#ecc94b;fill-opacity:1;stroke-width:0.26684248"
         id="circle944"
         cx="106.60818"
         cy="133.70531"
         r="67.752235" />
    </clipPath>
    <clipPath
       clipPathUnits="userSpaceOnUse"
       id="clipPath946">
      <circle
         style="display:inline;opacity:1;fill:#ecc94b;fill-opacity:1;stroke-width:0.26684248"
         id="circle948"
         cx="106.60818"
         cy="133.70531"
         r="67.752235" />
    </clipPath>
    <clipPath
       clipPathUnits="userSpaceOnUse"
       id="clipPath950">
      <circle
         style="display:inline;opacity:1;fill:#ecc94b;fill-opacity:1;stroke-width:0.26684248"
         id="circle952"
         cx="106.60818"
         cy="133.70531"
         r="67.752235" />
    </clipPath>
    <clipPath
       clipPathUnits="userSpaceOnUse"
       id="clipPath954">
      <circle
         style="display:inline;opacity:1;fill:#ecc94b;fill-opacity:1;stroke-width:1.00853848"
         id="circle956"
         cx="-258.91266"
         cy="255.01373"
         r="256.07144"
         transform="scale(-1,1)" />
    </clipPath>
    <clipPath
       clipPathUnits="userSpaceOnUse"
       id="clipPath958">
      <circle
         style="display:inline;opacity:1;fill:#ecc94b;fill-opacity:1;stroke-width:1.00853848"
         id="circle960"
         cx="-263.18597"
         cy="255.01372"
         r="256.07144"
         transform="scale(-1,1)" />
    </clipPath>
    <clipPath
       clipPathUnits="userSpaceOnUse"
       id="clipPath962">
      <circle
         style="display:inline;opacity:1;fill:#ecc94b;fill-opacity:1;stroke-width:1.00853848"
         id="circle964"
         cx="256.07141"
         cy="256.00357"
         r="256.07144" />
    </clipPath>
    <clipPath
       clipPathUnits="userSpaceOnUse"
       id="clipPath966">
      <circle
         style="display:inline;opacity:1;fill:#ecc94b;fill-opacity:1;stroke-width:0.26684248"
         id="circle968"
         cx="106.60818"
         cy="133.70531"
         r="67.752235" />
    </clipPath>
    <clipPath
       clipPathUnits="userSpaceOnUse"
       id="clipPath970">
      <circle
         style="display:inline;opacity:1;fill:#ecc94b;fill-opacity:1;stroke-width:0.26684248"
         id="circle972"
         cx="106.60818"
         cy="133.70531"
         r="67.752235" />
    </clipPath>
    <clipPath
       clipPathUnits="userSpaceOnUse"
       id="clipPath974">
      <circle
         style="display:inline;opacity:1;fill:#ecc94b;fill-opacity:1;stroke-width:1.00853848"
         id="circle976"
         cx="256.07141"
         cy="256.00357"
         r="256.07144" />
    </clipPath>
    <clipPath
       clipPathUnits="userSpaceOnUse"
       id="clipPath978">
      <circle
         style="display:inline;opacity:1;fill:#ecc94b;fill-opacity:1;stroke-width:1.00853848"
         id="circle980"
         cx="256.07141"
         cy="256.00357"
         r="256.07144" />
    </clipPath>
    <clipPath
       clipPathUnits="userSpaceOnUse"
       id="clipPath982">
      <circle
         style="display:inline;opacity:1;fill:#ecc94b;fill-opacity:1;stroke-width:0.26684248"
         id="circle984"
         cx="106.60818"
         cy="133.70531"
         r="67.752235" />
    </clipPath>
    <clipPath
       clipPathUnits="userSpaceOnUse"
       id="clipPath986">
      <circle
         style="display:inline;opacity:1;fill:#ecc94b;fill-opacity:1;stroke-width:1.00853848"
         id="circle988"
         cx="256.07141"
         cy="256.00357"
         r="256.07144" />
    </clipPath>
    <clipPath
       clipPathUnits="userSpaceOnUse"
       id="clipPath990">
      <circle
         style="display:inline;opacity:1;fill:#ecc94b;fill-opacity:1;stroke-width:1.00853848"
         id="circle992"
         cx="256.07141"
         cy="256.00357"
         r="256.07144" />
    </clipPath>
    <clipPath
       clipPathUnits="userSpaceOnUse"
       id="clipPath994">
      <circle
         style="display:inline;opacity:1;fill:#ecc94b;fill-opacity:1;stroke-width:1.00853848"
         id="circle996"
         cx="256.07141"
         cy="256.00357"
         r="256.07144" />
    </clipPath>
    <clipPath
       clipPathUnits="userSpaceOnUse"
       id="clipPath998">
      <circle
         style="display:inline;opacity:1;fill:#ecc94b;fill-opacity:1;stroke-width:1.00853848"
         id="circle1000"
         cx="256.07141"
         cy="256.00357"
         r="256.07144" />
    </clipPath>
    <clipPath
       clipPathUnits="userSpaceOnUse"
       id="clipPath1002">
      <circle
         style="display:inline;opacity:1;fill:#ecc94b;fill-opacity:1;stroke-width:0.26684248"
         id="circle1004"
         cx="106.60818"
         cy="133.70531"
         r="67.752235" />
    </clipPath>
    <clipPath
       clipPathUnits="userSpaceOnUse"
       id="clipPath1006">
      <circle
         style="display:inline;opacity:1;fill:#ecc94b;fill-opacity:1;stroke-width:0.26684248"
         id="circle1008"
         cx="106.60818"
         cy="133.70531"
         r="67.752235" />
    </clipPath>
    <clipPath
       clipPathUnits="userSpaceOnUse"
       id="clipPath1010">
      <circle
         style="display:inline;opacity:1;fill:#ecc94b;fill-opacity:1;stroke-width:0.26684248"
         id="circle1012"
         cx="106.60818"
         cy="133.70531"
         r="67.752235" />
    </clipPath>
    <clipPath
       clipPathUnits="userSpaceOnUse"
       id="clipPath1014">
      <circle
         style="display:inline;opacity:1;fill:#ecc94b;fill-opacity:1;stroke-width:0.26684248"
         id="circle1016"
         cx="106.60818"
         cy="133.70531"
         r="67.752235" />
    </clipPath>
    <clipPath
       clipPathUnits="userSpaceOnUse"
       id="clipPath1018">
      <circle
         style="display:inline;opacity:1;fill:#ecc94b;fill-opacity:1;stroke-width:0.26684248"
         id="circle1020"
         cx="106.60818"
         cy="133.70531"
         r="67.752235" />
    </clipPath>
    <clipPath
       clipPathUnits="userSpaceOnUse"
       id="clipPath1022">
      <circle
         style="display:inline;opacity:1;fill:#ecc94b;fill-opacity:1;stroke-width:0.26684248"
         id="circle1024"
         cx="106.60818"
         cy="133.70531"
         r="67.752235" />
    </clipPath>
  </defs>
  <sodipodi:namedview
     id="base"
     pagecolor="#ffffff"
     bordercolor="#666666"
     borderopacity="1.0"
     inkscape:pageopacity="0.0"
     inkscape:pageshadow="2"
     inkscape:zoom="0.98994949"
     inkscape:cx="584.50133"
     inkscape:cy="162.76571"
     inkscape:document-units="mm"
     inkscape:current-layer="layer1"
     showgrid="false"
     inkscape:window-width="2560"
     inkscape:window-height="1377"
     inkscape:window-x="-8"
     inkscape:window-y="-8"
     inkscape:window-maximized="1"
     units="px"
     fit-margin-top="0"
     fit-margin-left="0"
     fit-margin-right="0"
     fit-margin-bottom="0" />
  <metadata
     id="metadata5">
    <rdf:RDF>
      <cc:Work
         rdf:about="">
        <dc:format>image/svg+xml</dc:format>
        <dc:type
           rdf:resource="http://purl.org/dc/dcmitype/StillImage" />
        <dc:title />
      </cc:Work>
    </rdf:RDF>
  </metadata>
  <g
     inkscape:label="Layer 1"
     inkscape:groupmode="layer"
     id="layer1"
     transform="translate(-38.855949,-65.990878)"
     style="display:inline">
    <ellipse
       id="background_31_"
       style="fill:#2a4365;fill-opacity:1;stroke-width:0.26808682"
       cx="106.49478"
       cy="133.13739"
       rx="68.961754"
       ry="68.300293"
       clip-path="url(#clipPath1022)" />
    <path
       inkscape:connector-curvature="0"
       style="fill:#f6e05e;fill-opacity:1;stroke-width:0.28293151"
       d="m 126.65869,72.68489 c -1.8879,0 -3.65346,0.510755 -5.1626,1.396448 6.13048,1.15171 9.15934,4.731309 9.15934,8.460498 0,3.74562 -3.223,7.344999 -9.15934,8.460223 1.50914,0.885704 3.27498,1.396173 5.1626,1.396173 5.5574,0 10.06277,-4.413098 10.06277,-9.856396 0,-5.443572 -4.50537,-9.856946 -10.06277,-9.856946 z"
       id="path11"
       sodipodi:nodetypes="scscsss"
       clip-path="url(#clipPath1018)" />
    <path
       inkscape:connector-curvature="0"
       style="fill:#56829c;stroke-width:0.26458332"
       d="m 91.323624,90.448236 c 0,1.371602 -1.112044,2.483642 -2.483644,2.483642 H 63.909087 c -1.3716,0 -2.483644,-1.11204 -2.483644,-2.483642 v -0.06006 c 0,-1.3716 1.112044,-2.483643 2.483644,-2.483643 H 88.83998 c 1.3716,0 2.483644,1.112043 2.483644,2.483643 z"
       id="path13"
       clip-path="url(#clipPath1014)" />
    <path
       inkscape:connector-curvature="0"
       style="fill:#56829c;stroke-width:0.26458332"
       d="m 76.918604,93.69739 c 0,1.22608 -0.993775,2.220119 -2.219854,2.220119 H 56.119444 c -1.226079,0 -2.219854,-0.994039 -2.219854,-2.220119 v -0.05794 c 0,-1.22608 0.993775,-2.220119 2.219854,-2.220119 H 74.69875 c 1.226079,0 2.219854,0.994039 2.219854,2.220119 z"
       id="path15"
       clip-path="url(#clipPath1010)" />
    <path
       inkscape:connector-curvature="0"
       style="fill:#56829c;stroke-width:0.26458332"
       d="m 151.02276,93.620545 c 0,1.3716 -1.11205,2.48365 -2.48365,2.48365 h -24.93089 c -1.3716,0 -2.48364,-1.11205 -2.48364,-2.48365 v -0.0601 c 0,-1.3716 1.11204,-2.48364 2.48364,-2.48364 h 24.93089 c 1.3716,0 2.48365,1.11204 2.48365,2.48364 z"
       id="path17"
       clip-path="url(#clipPath1006)" />
    <path
       inkscape:connector-curvature="0"
       style="fill:#56829c;stroke-width:0.26458332"
       d="m 154.35355,97.214203 c 0,1.226079 -0.99403,2.220117 -2.22011,2.220117 h -18.57878 c -1.22608,0 -2.22012,-0.994038 -2.22012,-2.220117 v -0.05794 c 0,-1.226079 0.99404,-2.220119 2.22012,-2.220119 h 18.57878 c 1.22608,0 2.22011,0.99404 2.22011,2.220119 z"
       id="path19"
       clip-path="url(#clipPath1002)" />
    <g
       id="g23"
       transform="matrix(0.26458333,0,0,0.26458333,38.855949,65.971031)"
       style="fill:#fffff0;fill-opacity:1"
       clip-path="url(#clipPath998)">
      <path
         inkscape:connector-curvature="0"
         style="fill:#fffff0;fill-opacity:1"
         d="m 254.033,97.288 c -23.357,29.422 -46.714,58.843 -70.071,88.264 -38.745,48.805 -77.49,97.61 -116.236,146.415 -11.18,14.082 -22.359,28.165 -33.539,42.247 -2.03,2.558 1.568,6.206 3.62,3.621 23.357,-29.422 46.714,-58.843 70.071,-88.264 38.745,-48.805 77.49,-97.61 116.236,-146.415 11.18,-14.082 22.359,-28.165 33.539,-42.247 2.03,-2.557 -1.568,-6.206 -3.62,-3.621 z"
         id="path21" />
    </g>
    <g
       id="g27"
       transform="matrix(0.26458333,0,0,0.26458333,38.855949,65.971031)"
       style="fill:#fffff0;fill-opacity:1"
       clip-path="url(#clipPath994)">
      <path
         inkscape:connector-curvature="0"
         style="fill:#fffff0;fill-opacity:1"
         d="m 254.347,100.909 c 23.357,29.421 46.713,58.842 70.07,88.263 38.746,48.806 77.491,97.61 116.236,146.415 11.18,14.083 22.359,28.165 33.539,42.248 2.053,2.585 5.65,-1.063 3.621,-3.621 -23.357,-29.421 -46.714,-58.842 -70.07,-88.263 -38.746,-48.806 -77.491,-97.61 -116.236,-146.415 -11.18,-14.083 -22.359,-28.165 -33.54,-42.248 -2.052,-2.585 -5.65,1.064 -3.62,3.621 z"
         id="path25" />
    </g>
    <g
       id="g31"
       transform="matrix(0.26458333,0,0,0.26458333,38.855949,65.971031)"
       style="fill:#fffff0;fill-opacity:1"
       clip-path="url(#clipPath990)">
      <path
         inkscape:connector-curvature="0"
         style="fill:#fffff0;fill-opacity:1"
         d="m 242.753,62.232 c 3.84,12.516 7.68,25.031 11.52,37.547 0.738,2.406 4.233,2.479 4.938,0 3.556,-12.516 7.111,-25.031 10.668,-37.547 0.904,-3.183 -4.036,-4.634 -4.938,-1.464 -3.556,12.516 -7.112,25.445 -10.668,37.445 1.646,0 3.292,0 4.938,0 -3.84,-12 -7.68,-24.93 -11.52,-37.445 -0.966,-3.146 -5.909,-1.701 -4.938,1.464 z"
         id="path29" />
    </g>
    <polygon
       style="fill:#38a169;fill-opacity:1"
       points="426.823,378.214 74.624,378.214 250.724,99.175 "
       id="polygon33"
       transform="matrix(0.26458333,0,0,0.26458333,38.855949,65.971031)"
       clip-path="url(#clipPath986)" />
    <path
       inkscape:connector-curvature="0"
       style="fill:#48bb78;fill-opacity:1;stroke-width:0.26458332"
       d="m 106.85254,92.868043 c 0,0 2.49105,5.011738 2.54106,5.122333 0.0497,0.110067 3.35889,12.770644 3.35889,12.770644 l 0.91096,15.29636 -6.89399,13.58079 -10.594443,26.40172 H 59.823913 L 106.22098,92.48281 Z"
       id="path35"
       clip-path="url(#clipPath982)" />
    <polygon
       style="fill:#f6e05e;fill-opacity:1"
       points="216.64,378.214 296.753,378.214 256.696,278.466 "
       id="polygon37"
       transform="matrix(0.26458333,0,0,0.26458333,38.855949,65.971031)"
       clip-path="url(#clipPath978)" />
    <polygon
       style="fill:#48bb78;fill-opacity:1"
       points="256.696,278.39 296.753,378.138 321.863,365.352 "
       id="polygon39"
       transform="matrix(0.26458333,0,0,0.26458333,38.855949,65.971031)"
       clip-path="url(#clipPath974)" />
    <path
       inkscape:connector-curvature="0"
       style="fill:#276749;fill-opacity:1;stroke-width:0.26458332"
       d="m 106.77343,139.62838 c 0,0 12.40605,-18.36869 -0.22595,-47.437406 2.6e-4,0 20.53431,36.173036 0.22595,47.437406 z"
       id="path41"
       clip-path="url(#clipPath970)" />
    <path
       inkscape:connector-curvature="0"
       style="fill:#e8e8e8;stroke-width:0.26458332"
       d="m 108.55646,92.186212 c 0,0.311679 -0.25268,0.564356 -0.56462,0.564356 h -2.57493 c -0.31194,0 -0.56462,-0.252677 -0.56462,-0.564356 v -0.194204 c 0,-0.311679 0.25268,-0.564356 0.56462,-0.564356 h 2.57493 c 0.31194,0 0.56462,0.252677 0.56462,0.564356 z"
       id="path43"
       clip-path="url(#clipPath966)" />
    <polygon
       style="fill:#ecc94b;fill-opacity:1"
       points="216.64,378.214 256.696,278.466 245.865,378.214 "
       id="polygon45"
       transform="matrix(0.26458333,0,0,0.26458333,38.855949,65.971031)"
       inkscape:export-xdpi="96"
       inkscape:export-ydpi="96"
       clip-path="url(#clipPath962)" />
    <polygon
       style="fill:#276749;fill-opacity:1"
       points="164.582,378.214 221.755,205.034 129.312,378.214 "
       id="polygon47"
       transform="matrix(-0.26458333,0,0,0.26458333,176.2428,66.232929)"
       clip-path="url(#clipPath958)" />
    <polygon
       style="fill:#38a169;fill-opacity:1"
       points="344.92,378.214 374.502,378.214 312.208,244.402 "
       id="polygon49"
       transform="matrix(-0.26458333,0,0,0.26458333,175.11215,66.232928)"
       clip-path="url(#clipPath954)" />
    <path
       inkscape:connector-curvature="0"
       style="fill:#faf089;fill-opacity:1;stroke-width:0.26458332"
       d="m 81.858834,84.202294 c 0,-2.735792 -1.74096,-4.47675 -4.47675,-4.47675 2.73579,0 4.47675,-1.741223 4.47675,-4.477279 0,2.736056 1.74149,4.477279 4.47728,4.477279 -2.73579,0 -4.47728,1.741223 -4.47728,4.47675 z"
       id="path51"
       clip-path="url(#clipPath950)" />
    <path
       inkscape:connector-curvature="0"
       style="fill:#efd378;stroke-width:0.26458332"
       d="m 147.69334,114.35283 c 0,-1.79202 -1.14036,-2.93237 -2.93238,-2.93237 1.79202,0 2.93238,-1.14089 2.93238,-2.93291 0,1.79202 1.14088,2.93291 2.93317,2.93291 -1.79229,0 -2.93317,1.14035 -2.93317,2.93237 z"
       id="path53"
       clip-path="url(#clipPath946)" />
    <path
       inkscape:connector-curvature="0"
       style="fill:#2d3748;fill-opacity:1;stroke-width:0.28870896"
       d="m 41.189347,166.04015 c 12.840226,22.24049 37.863091,37.68525 66.628353,37.68525 28.76527,0 53.78814,-15.44476 66.62836,-37.68525 z"
       id="path55"
       clip-path="url(#clipPath942)" />
    <g
       id="g57"
       transform="matrix(0.26458333,0,0,0.26458333,38.855949,65.971031)"
       clip-path="url(#clipPath938)" />
    <g
       id="g59"
       transform="matrix(0.26458333,0,0,0.26458333,38.855949,65.971031)"
       clip-path="url(#clipPath934)" />
    <g
       id="g61"
       transform="matrix(0.26458333,0,0,0.26458333,38.855949,65.971031)"
       clip-path="url(#clipPath930)" />
    <g
       id="g63"
       transform="matrix(0.26458333,0,0,0.26458333,38.855949,65.971031)"
       clip-path="url(#clipPath926)" />
    <g
       id="g65"
       transform="matrix(0.26458333,0,0,0.26458333,38.855949,65.971031)"
       clip-path="url(#clipPath922)" />
    <g
       id="g67"
       transform="matrix(0.26458333,0,0,0.26458333,38.855949,65.971031)"
       clip-path="url(#clipPath918)" />
    <g
       id="g69"
       transform="matrix(0.26458333,0,0,0.26458333,38.855949,65.971031)"
       clip-path="url(#clipPath914)" />
    <g
       id="g71"
       transform="matrix(0.26458333,0,0,0.26458333,38.855949,65.971031)"
       clip-path="url(#clipPath910)" />
    <g
       id="g73"
       transform="matrix(0.26458333,0,0,0.26458333,38.855949,65.971031)"
       clip-path="url(#clipPath906)" />
    <g
       id="g75"
       transform="matrix(0.26458333,0,0,0.26458333,38.855949,65.971031)"
       clip-path="url(#clipPath902)" />
    <g
       id="g77"
       transform="matrix(0.26458333,0,0,0.26458333,38.855949,65.971031)"
       clip-path="url(#clipPath898)" />
    <g
       id="g79"
       transform="matrix(0.26458333,0,0,0.26458333,38.855949,65.971031)"
       clip-path="url(#clipPath894)" />
    <g
       id="g81"
       transform="matrix(0.26458333,0,0,0.26458333,38.855949,65.971031)"
       clip-path="url(#clipPath890)" />
    <g
       id="g83"
       transform="matrix(0.26458333,0,0,0.26458333,38.855949,65.971031)"
       clip-path="url(#clipPath886)" />
    <g
       id="g85"
       transform="matrix(0.26458333,0,0,0.26458333,38.855949,65.971031)"
       clip-path="url(#clipPath882)" />
    <path
       inkscape:connector-curvature="0"
       style="fill:#fefcbf;fill-opacity:1;stroke-width:0.26458332"
       d="m 86.194032,103.75681 c 0,-1.79203 -1.14036,-2.93238 -2.93238,-2.93238 1.79202,0 2.93238,-1.140886 2.93238,-2.932906 0,1.79202 1.14088,2.932906 2.93317,2.932906 -1.79229,0 -2.93317,1.14035 -2.93317,2.93238 z"
       id="path53-4"
       clip-path="url(#clipPath878)" />
    <path
       inkscape:connector-curvature="0"
       style="fill:#f6e05e;fill-opacity:1;stroke-width:0.26458332"
       d="m 59.86798,108.03312 c 0,-1.79202 -1.14036,-2.93237 -2.93238,-2.93237 1.79202,0 2.93238,-1.14089 2.93238,-2.93291 0,1.79202 1.14088,2.93291 2.93317,2.93291 -1.79229,0 -2.93317,1.14035 -2.93317,2.93237 z"
       id="path53-7"
       clip-path="url(#clipPath874)" />
    <path
       inkscape:connector-curvature="0"
       style="fill:#efd378;stroke-width:0.26458332"
       d="m 67.618796,120.99569 c 0,-1.79202 -1.14036,-2.93237 -2.93238,-2.93237 1.79202,0 2.93238,-1.14089 2.93238,-2.93291 0,1.79202 1.14088,2.93291 2.93317,2.93291 -1.79229,0 -2.93317,1.14035 -2.93317,2.93237 z"
       id="path53-1"
       clip-path="url(#clipPath870)" />
  </g>
</svg>
