<?xml version="1.0" encoding="UTF-8" standalone="no"?>
<svg
   xmlns:dc="http://purl.org/dc/elements/1.1/"
   xmlns:cc="http://creativecommons.org/ns#"
   xmlns:rdf="http://www.w3.org/1999/02/22-rdf-syntax-ns#"
   xmlns:svg="http://www.w3.org/2000/svg"
   xmlns="http://www.w3.org/2000/svg"
   enable-background="new"
   id="svg8"
   version="1.1"
   viewBox="0 0 135.46666 135.46667"
   height="512"
   width="512">
  <defs
     id="defs2">
    <clipPath
       id="clipPath870"
       clipPathUnits="userSpaceOnUse">
      <circle
         r="67.752235"
         cy="133.70531"
         cx="106.60818"
         id="circle872"
         style="display:inline;opacity:1;fill:#ecc94b;fill-opacity:1;stroke-width:0.26684248" />
    </clipPath>
    <clipPath
       id="clipPath874"
       clipPathUnits="userSpaceOnUse">
      <circle
         r="67.752235"
         cy="133.70531"
         cx="106.60818"
         id="circle876"
         style="display:inline;opacity:1;fill:#ecc94b;fill-opacity:1;stroke-width:0.26684248" />
    </clipPath>
    <clipPath
       id="clipPath878"
       clipPathUnits="userSpaceOnUse">
      <circle
         r="67.752235"
         cy="133.70531"
         cx="106.60818"
         id="circle880"
         style="display:inline;opacity:1;fill:#ecc94b;fill-opacity:1;stroke-width:0.26684248" />
    </clipPath>
    <clipPath
       id="clipPath882"
       clipPathUnits="userSpaceOnUse">
      <circle
         r="256.07144"
         cy="256.00357"
         cx="256.07141"
         id="circle884"
         style="display:inline;opacity:1;fill:#ecc94b;fill-opacity:1;stroke-width:1.00853848" />
    </clipPath>
    <clipPath
       id="clipPath886"
       clipPathUnits="userSpaceOnUse">
      <circle
         r="256.07144"
         cy="256.00357"
         cx="256.07141"
         id="circle888"
         style="display:inline;opacity:1;fill:#ecc94b;fill-opacity:1;stroke-width:1.00853848" />
    </clipPath>
    <clipPath
       id="clipPath890"
       clipPathUnits="userSpaceOnUse">
      <circle
         r="256.07144"
         cy="256.00357"
         cx="256.07141"
         id="circle892"
         style="display:inline;opacity:1;fill:#ecc94b;fill-opacity:1;stroke-width:1.00853848" />
    </clipPath>
    <clipPath
       id="clipPath894"
       clipPathUnits="userSpaceOnUse">
      <circle
         r="256.07144"
         cy="256.00357"
         cx="256.07141"
         id="circle896"
         style="display:inline;opacity:1;fill:#ecc94b;fill-opacity:1;stroke-width:1.00853848" />
    </clipPath>
    <clipPath
       id="clipPath898"
       clipPathUnits="userSpaceOnUse">
      <circle
         r="256.07144"
         cy="256.00357"
         cx="256.07141"
         id="circle900"
         style="display:inline;opacity:1;fill:#ecc94b;fill-opacity:1;stroke-width:1.00853848" />
    </clipPath>
    <clipPath
       id="clipPath902"
       clipPathUnits="userSpaceOnUse">
      <circle
         r="256.07144"
         cy="256.00357"
         cx="256.07141"
         id="circle904"
         style="display:inline;opacity:1;fill:#ecc94b;fill-opacity:1;stroke-width:1.00853848" />
    </clipPath>
    <clipPath
       id="clipPath906"
       clipPathUnits="userSpaceOnUse">
      <circle
         r="256.07144"
         cy="256.00357"
         cx="256.07141"
         id="circle908"
         style="display:inline;opacity:1;fill:#ecc94b;fill-opacity:1;stroke-width:1.00853848" />
    </clipPath>
    <clipPath
       id="clipPath910"
       clipPathUnits="userSpaceOnUse">
      <circle
         r="256.07144"
         cy="256.00357"
         cx="256.07141"
         id="circle912"
         style="display:inline;opacity:1;fill:#ecc94b;fill-opacity:1;stroke-width:1.00853848" />
    </clipPath>
    <clipPath
       id="clipPath914"
       clipPathUnits="userSpaceOnUse">
      <circle
         r="256.07144"
         cy="256.00357"
         cx="256.07141"
         id="circle916"
         style="display:inline;opacity:1;fill:#ecc94b;fill-opacity:1;stroke-width:1.00853848" />
    </clipPath>
    <clipPath
       id="clipPath918"
       clipPathUnits="userSpaceOnUse">
      <circle
         r="256.07144"
         cy="256.00357"
         cx="256.07141"
         id="circle920"
         style="display:inline;opacity:1;fill:#ecc94b;fill-opacity:1;stroke-width:1.00853848" />
    </clipPath>
    <clipPath
       id="clipPath922"
       clipPathUnits="userSpaceOnUse">
      <circle
         r="256.07144"
         cy="256.00357"
         cx="256.07141"
         id="circle924"
         style="display:inline;opacity:1;fill:#ecc94b;fill-opacity:1;stroke-width:1.00853848" />
    </clipPath>
    <clipPath
       id="clipPath926"
       clipPathUnits="userSpaceOnUse">
      <circle
         r="256.07144"
         cy="256.00357"
         cx="256.07141"
         id="circle928"
         style="display:inline;opacity:1;fill:#ecc94b;fill-opacity:1;stroke-width:1.00853848" />
    </clipPath>
    <clipPath
       id="clipPath930"
       clipPathUnits="userSpaceOnUse">
      <circle
         r="256.07144"
         cy="256.00357"
         cx="256.07141"
         id="circle932"
         style="display:inline;opacity:1;fill:#ecc94b;fill-opacity:1;stroke-width:1.00853848" />
    </clipPath>
    <clipPath
       id="clipPath934"
       clipPathUnits="userSpaceOnUse">
      <circle
         r="256.07144"
         cy="256.00357"
         cx="256.07141"
         id="circle936"
         style="display:inline;opacity:1;fill:#ecc94b;fill-opacity:1;stroke-width:1.00853848" />
    </clipPath>
    <clipPath
       id="clipPath938"
       clipPathUnits="userSpaceOnUse">
      <circle
         r="256.07144"
         cy="256.00357"
         cx="256.07141"
         id="circle940"
         style="display:inline;opacity:1;fill:#ecc94b;fill-opacity:1;stroke-width:1.00853848" />
    </clipPath>
    <clipPath
       id="clipPath942"
       clipPathUnits="userSpaceOnUse">
      <circle
         r="67.752235"
         cy="133.70531"
         cx="106.60818"
         id="circle944"
         style="display:inline;opacity:1;fill:#ecc94b;fill-opacity:1;stroke-width:0.26684248" />
    </clipPath>
    <clipPath
       id="clipPath946"
       clipPathUnits="userSpaceOnUse">
      <circle
         r="67.752235"
         cy="133.70531"
         cx="106.60818"
         id="circle948"
         style="display:inline;opacity:1;fill:#ecc94b;fill-opacity:1;stroke-width:0.26684248" />
    </clipPath>
    <clipPath
       id="clipPath950"
       clipPathUnits="userSpaceOnUse">
      <circle
         r="67.752235"
         cy="133.70531"
         cx="106.60818"
         id="circle952"
         style="display:inline;opacity:1;fill:#ecc94b;fill-opacity:1;stroke-width:0.26684248" />
    </clipPath>
    <clipPath
       id="clipPath954"
       clipPathUnits="userSpaceOnUse">
      <circle
         transform="scale(-1,1)"
         r="256.07144"
         cy="255.01373"
         cx="-258.91266"
         id="circle956"
         style="display:inline;opacity:1;fill:#ecc94b;fill-opacity:1;stroke-width:1.00853848" />
    </clipPath>
    <clipPath
       id="clipPath958"
       clipPathUnits="userSpaceOnUse">
      <circle
         transform="scale(-1,1)"
         r="256.07144"
         cy="255.01372"
         cx="-263.18597"
         id="circle960"
         style="display:inline;opacity:1;fill:#ecc94b;fill-opacity:1;stroke-width:1.00853848" />
    </clipPath>
    <clipPath
       id="clipPath962"
       clipPathUnits="userSpaceOnUse">
      <circle
         r="256.07144"
         cy="256.00357"
         cx="256.07141"
         id="circle964"
         style="display:inline;opacity:1;fill:#ecc94b;fill-opacity:1;stroke-width:1.00853848" />
    </clipPath>
    <clipPath
       id="clipPath966"
       clipPathUnits="userSpaceOnUse">
      <circle
         r="67.752235"
         cy="133.70531"
         cx="106.60818"
         id="circle968"
         style="display:inline;opacity:1;fill:#ecc94b;fill-opacity:1;stroke-width:0.26684248" />
    </clipPath>
    <clipPath
       id="clipPath970"
       clipPathUnits="userSpaceOnUse">
      <circle
         r="67.752235"
         cy="133.70531"
         cx="106.60818"
         id="circle972"
         style="display:inline;opacity:1;fill:#ecc94b;fill-opacity:1;stroke-width:0.26684248" />
    </clipPath>
    <clipPath
       id="clipPath974"
       clipPathUnits="userSpaceOnUse">
      <circle
         r="256.07144"
         cy="256.00357"
         cx="256.07141"
         id="circle976"
         style="display:inline;opacity:1;fill:#ecc94b;fill-opacity:1;stroke-width:1.00853848" />
    </clipPath>
    <clipPath
       id="clipPath978"
       clipPathUnits="userSpaceOnUse">
      <circle
         r="256.07144"
         cy="256.00357"
         cx="256.07141"
         id="circle980"
         style="display:inline;opacity:1;fill:#ecc94b;fill-opacity:1;stroke-width:1.00853848" />
    </clipPath>
    <clipPath
       id="clipPath982"
       clipPathUnits="userSpaceOnUse">
      <circle
         r="67.752235"
         cy="133.70531"
         cx="106.60818"
         id="circle984"
         style="display:inline;opacity:1;fill:#ecc94b;fill-opacity:1;stroke-width:0.26684248" />
    </clipPath>
    <clipPath
       id="clipPath986"
       clipPathUnits="userSpaceOnUse">
      <circle
         r="256.07144"
         cy="256.00357"
         cx="256.07141"
         id="circle988"
         style="display:inline;opacity:1;fill:#ecc94b;fill-opacity:1;stroke-width:1.00853848" />
    </clipPath>
    <clipPath
       id="clipPath990"
       clipPathUnits="userSpaceOnUse">
      <circle
         r="256.07144"
         cy="256.00357"
         cx="256.07141"
         id="circle992"
         style="display:inline;opacity:1;fill:#ecc94b;fill-opacity:1;stroke-width:1.00853848" />
    </clipPath>
    <clipPath
       id="clipPath994"
       clipPathUnits="userSpaceOnUse">
      <circle
         r="256.07144"
         cy="256.00357"
         cx="256.07141"
         id="circle996"
         style="display:inline;opacity:1;fill:#ecc94b;fill-opacity:1;stroke-width:1.00853848" />
    </clipPath>
    <clipPath
       id="clipPath998"
       clipPathUnits="userSpaceOnUse">
      <circle
         r="256.07144"
         cy="256.00357"
         cx="256.07141"
         id="circle1000"
         style="display:inline;opacity:1;fill:#ecc94b;fill-opacity:1;stroke-width:1.00853848" />
    </clipPath>
    <clipPath
       id="clipPath1002"
       clipPathUnits="userSpaceOnUse">
      <circle
         r="67.752235"
         cy="133.70531"
         cx="106.60818"
         id="circle1004"
         style="display:inline;opacity:1;fill:#ecc94b;fill-opacity:1;stroke-width:0.26684248" />
    </clipPath>
    <clipPath
       id="clipPath1006"
       clipPathUnits="userSpaceOnUse">
      <circle
         r="67.752235"
         cy="133.70531"
         cx="106.60818"
         id="circle1008"
         style="display:inline;opacity:1;fill:#ecc94b;fill-opacity:1;stroke-width:0.26684248" />
    </clipPath>
    <clipPath
       id="clipPath1010"
       clipPathUnits="userSpaceOnUse">
      <circle
         r="67.752235"
         cy="133.70531"
         cx="106.60818"
         id="circle1012"
         style="display:inline;opacity:1;fill:#ecc94b;fill-opacity:1;stroke-width:0.26684248" />
    </clipPath>
    <clipPath
       id="clipPath1014"
       clipPathUnits="userSpaceOnUse">
      <circle
         r="67.752235"
         cy="133.70531"
         cx="106.60818"
         id="circle1016"
         style="display:inline;opacity:1;fill:#ecc94b;fill-opacity:1;stroke-width:0.26684248" />
    </clipPath>
    <clipPath
       id="clipPath1018"
       clipPathUnits="userSpaceOnUse">
      <circle
         r="67.752235"
         cy="133.70531"
         cx="106.60818"
         id="circle1020"
         style="display:inline;opacity:1;fill:#ecc94b;fill-opacity:1;stroke-width:0.26684248" />
    </clipPath>
    <clipPath
       id="clipPath1022"
       clipPathUnits="userSpaceOnUse">
      <circle
         r="67.752235"
         cy="133.70531"
         cx="106.60818"
         id="circle1024"
         style="display:inline;opacity:1;fill:#ecc94b;fill-opacity:1;stroke-width:0.26684248" />
    </clipPath>
  </defs>
  <metadata
     id="metadata5">
    <rdf:RDF>
      <cc:Work
         rdf:about="">
        <dc:format>image/svg+xml</dc:format>
        <dc:type
           rdf:resource="http://purl.org/dc/dcmitype/StillImage" />
        <dc:title></dc:title>
      </cc:Work>
    </rdf:RDF>
  </metadata>
  <g
     style="display:inline"
     transform="translate(-38.855949,-65.990878)"
     id="layer1">
    <ellipse
       clip-path="url(#clipPath1022)"
       ry="68.300293"
       rx="68.961754"
       cy="133.13739"
       cx="106.49478"
       style="fill:#2a4365;fill-opacity:1;stroke-width:0.26808682"
       id="background_31_" />
    <path
       clip-path="url(#clipPath1018)"
       id="path11"
       d="m 126.65869,72.68489 c -1.8879,0 -3.65346,0.510755 -5.1626,1.396448 6.13048,1.15171 9.15934,4.731309 9.15934,8.460498 0,3.74562 -3.223,7.344999 -9.15934,8.460223 1.50914,0.885704 3.27498,1.396173 5.1626,1.396173 5.5574,0 10.06277,-4.413098 10.06277,-9.856396 0,-5.443572 -4.50537,-9.856946 -10.06277,-9.856946 z"
       style="fill:#f6e05e;fill-opacity:1;stroke-width:0.28293151" />
    <path
       clip-path="url(#clipPath1014)"
       id="path13"
       d="m 91.323624,90.448236 c 0,1.371602 -1.112044,2.483642 -2.483644,2.483642 H 63.909087 c -1.3716,0 -2.483644,-1.11204 -2.483644,-2.483642 v -0.06006 c 0,-1.3716 1.112044,-2.483643 2.483644,-2.483643 H 88.83998 c 1.3716,0 2.483644,1.112043 2.483644,2.483643 z"
       style="fill:#56829c;stroke-width:0.26458332" />
    <path
       clip-path="url(#clipPath1010)"
       id="path15"
       d="m 76.918604,93.69739 c 0,1.22608 -0.993775,2.220119 -2.219854,2.220119 H 56.119444 c -1.226079,0 -2.219854,-0.994039 -2.219854,-2.220119 v -0.05794 c 0,-1.22608 0.993775,-2.220119 2.219854,-2.220119 H 74.69875 c 1.226079,0 2.219854,0.994039 2.219854,2.220119 z"
       style="fill:#56829c;stroke-width:0.26458332" />
    <path
       clip-path="url(#clipPath1006)"
       id="path17"
       d="m 151.02276,93.620545 c 0,1.3716 -1.11205,2.48365 -2.48365,2.48365 h -24.93089 c -1.3716,0 -2.48364,-1.11205 -2.48364,-2.48365 v -0.0601 c 0,-1.3716 1.11204,-2.48364 2.48364,-2.48364 h 24.93089 c 1.3716,0 2.48365,1.11204 2.48365,2.48364 z"
       style="fill:#56829c;stroke-width:0.26458332" />
    <path
       clip-path="url(#clipPath1002)"
       id="path19"
       d="m 154.35355,97.214203 c 0,1.226079 -0.99403,2.220117 -2.22011,2.220117 h -18.57878 c -1.22608,0 -2.22012,-0.994038 -2.22012,-2.220117 v -0.05794 c 0,-1.226079 0.99404,-2.220119 2.22012,-2.220119 h 18.57878 c 1.22608,0 2.22011,0.99404 2.22011,2.220119 z"
       style="fill:#56829c;stroke-width:0.26458332" />
    <g
       clip-path="url(#clipPath998)"
       style="fill:#fffff0;fill-opacity:1"
       transform="matrix(0.26458333,0,0,0.26458333,38.855949,65.971031)"
       id="g23">
      <path
         id="path21"
         d="m 254.033,97.288 c -23.357,29.422 -46.714,58.843 -70.071,88.264 -38.745,48.805 -77.49,97.61 -116.236,146.415 -11.18,14.082 -22.359,28.165 -33.539,42.247 -2.03,2.558 1.568,6.206 3.62,3.621 23.357,-29.422 46.714,-58.843 70.071,-88.264 38.745,-48.805 77.49,-97.61 116.236,-146.415 11.18,-14.082 22.359,-28.165 33.539,-42.247 2.03,-2.557 -1.568,-6.206 -3.62,-3.621 z"
         style="fill:#fffff0;fill-opacity:1" />
    </g>
    <g
       clip-path="url(#clipPath994)"
       style="fill:#fffff0;fill-opacity:1"
       transform="matrix(0.26458333,0,0,0.26458333,38.855949,65.971031)"
       id="g27">
      <path
         id="path25"
         d="m 254.347,100.909 c 23.357,29.421 46.713,58.842 70.07,88.263 38.746,48.806 77.491,97.61 116.236,146.415 11.18,14.083 22.359,28.165 33.539,42.248 2.053,2.585 5.65,-1.063 3.621,-3.621 -23.357,-29.421 -46.714,-58.842 -70.07,-88.263 -38.746,-48.806 -77.491,-97.61 -116.236,-146.415 -11.18,-14.083 -22.359,-28.165 -33.54,-42.248 -2.052,-2.585 -5.65,1.064 -3.62,3.621 z"
         style="fill:#fffff0;fill-opacity:1" />
    </g>
    <g
       clip-path="url(#clipPath990)"
       style="fill:#fffff0;fill-opacity:1"
       transform="matrix(0.26458333,0,0,0.26458333,38.855949,65.971031)"
       id="g31">
      <path
         id="path29"
         d="m 242.753,62.232 c 3.84,12.516 7.68,25.031 11.52,37.547 0.738,2.406 4.233,2.479 4.938,0 3.556,-12.516 7.111,-25.031 10.668,-37.547 0.904,-3.183 -4.036,-4.634 -4.938,-1.464 -3.556,12.516 -7.112,25.445 -10.668,37.445 1.646,0 3.292,0 4.938,0 -3.84,-12 -7.68,-24.93 -11.52,-37.445 -0.966,-3.146 -5.909,-1.701 -4.938,1.464 z"
         style="fill:#fffff0;fill-opacity:1" />
    </g>
    <polygon
       clip-path="url(#clipPath986)"
       transform="matrix(0.26458333,0,0,0.26458333,38.855949,65.971031)"
       id="polygon33"
       points="426.823,378.214 74.624,378.214 250.724,99.175 "
       style="fill:#38a169;fill-opacity:1" />
    <path
       clip-path="url(#clipPath982)"
       id="path35"
       d="m 106.85254,92.868043 c 0,0 2.49105,5.011738 2.54106,5.122333 0.0497,0.110067 3.35889,12.770644 3.35889,12.770644 l 0.91096,15.29636 -6.89399,13.58079 -10.594443,26.40172 H 59.823913 L 106.22098,92.48281 Z"
       style="fill:#48bb78;fill-opacity:1;stroke-width:0.26458332" />
    <polygon
       clip-path="url(#clipPath978)"
       transform="matrix(0.26458333,0,0,0.26458333,38.855949,65.971031)"
       id="polygon37"
       points="216.64,378.214 296.753,378.214 256.696,278.466 "
       style="fill:#f6e05e;fill-opacity:1" />
    <polygon
       clip-path="url(#clipPath974)"
       transform="matrix(0.26458333,0,0,0.26458333,38.855949,65.971031)"
       id="polygon39"
       points="256.696,278.39 296.753,378.138 321.863,365.352 "
       style="fill:#48bb78;fill-opacity:1" />
    <path
       clip-path="url(#clipPath970)"
       id="path41"
       d="m 106.77343,139.62838 c 0,0 12.40605,-18.36869 -0.22595,-47.437406 2.6e-4,0 20.53431,36.173036 0.22595,47.437406 z"
       style="fill:#276749;fill-opacity:1;stroke-width:0.26458332" />
    <path
       clip-path="url(#clipPath966)"
       id="path43"
       d="m 108.55646,92.186212 c 0,0.311679 -0.25268,0.564356 -0.56462,0.564356 h -2.57493 c -0.31194,0 -0.56462,-0.252677 -0.56462,-0.564356 v -0.194204 c 0,-0.311679 0.25268,-0.564356 0.56462,-0.564356 h 2.57493 c 0.31194,0 0.56462,0.252677 0.56462,0.564356 z"
       style="fill:#e8e8e8;stroke-width:0.26458332" />
    <polygon
       clip-path="url(#clipPath962)"
       transform="matrix(0.26458333,0,0,0.26458333,38.855949,65.971031)"
       id="polygon45"
       points="216.64,378.214 256.696,278.466 245.865,378.214 "
       style="fill:#ecc94b;fill-opacity:1" />
    <polygon
       clip-path="url(#clipPath958)"
       transform="matrix(-0.26458333,0,0,0.26458333,176.2428,66.232929)"
       id="polygon47"
       points="164.582,378.214 221.755,205.034 129.312,378.214 "
       style="fill:#276749;fill-opacity:1" />
    <polygon
       clip-path="url(#clipPath954)"
       transform="matrix(-0.26458333,0,0,0.26458333,175.11215,66.232928)"
       id="polygon49"
       points="344.92,378.214 374.502,378.214 312.208,244.402 "
       style="fill:#38a169;fill-opacity:1" />
    <path
       clip-path="url(#clipPath950)"
       id="path51"
       d="m 81.858834,84.202294 c 0,-2.735792 -1.74096,-4.47675 -4.47675,-4.47675 2.73579,0 4.47675,-1.741223 4.47675,-4.477279 0,2.736056 1.74149,4.477279 4.47728,4.477279 -2.73579,0 -4.47728,1.741223 -4.47728,4.47675 z"
       style="fill:#faf089;fill-opacity:1;stroke-width:0.26458332" />
    <path
       clip-path="url(#clipPath946)"
       id="path53"
       d="m 147.69334,114.35283 c 0,-1.79202 -1.14036,-2.93237 -2.93238,-2.93237 1.79202,0 2.93238,-1.14089 2.93238,-2.93291 0,1.79202 1.14088,2.93291 2.93317,2.93291 -1.79229,0 -2.93317,1.14035 -2.93317,2.93237 z"
       style="fill:#efd378;stroke-width:0.26458332" />
    <path
       clip-path="url(#clipPath942)"
       id="path55"
       d="m 41.189347,166.04015 c 12.840226,22.24049 37.863091,37.68525 66.628353,37.68525 28.76527,0 53.78814,-15.44476 66.62836,-37.68525 z"
       style="fill:#2d3748;fill-opacity:1;stroke-width:0.28870896" />
    <g
       clip-path="url(#clipPath938)"
       transform="matrix(0.26458333,0,0,0.26458333,38.855949,65.971031)"
       id="g57" />
    <g
       clip-path="url(#clipPath934)"
       transform="matrix(0.26458333,0,0,0.26458333,38.855949,65.971031)"
       id="g59" />
    <g
       clip-path="url(#clipPath930)"
       transform="matrix(0.26458333,0,0,0.26458333,38.855949,65.971031)"
       id="g61" />
    <g
       clip-path="url(#clipPath926)"
       transform="matrix(0.26458333,0,0,0.26458333,38.855949,65.971031)"
       id="g63" />
    <g
       clip-path="url(#clipPath922)"
       transform="matrix(0.26458333,0,0,0.26458333,38.855949,65.971031)"
       id="g65" />
    <g
       clip-path="url(#clipPath918)"
       transform="matrix(0.26458333,0,0,0.26458333,38.855949,65.971031)"
       id="g67" />
    <g
       clip-path="url(#clipPath914)"
       transform="matrix(0.26458333,0,0,0.26458333,38.855949,65.971031)"
       id="g69" />
    <g
       clip-path="url(#clipPath910)"
       transform="matrix(0.26458333,0,0,0.26458333,38.855949,65.971031)"
       id="g71" />
    <g
       clip-path="url(#clipPath906)"
       transform="matrix(0.26458333,0,0,0.26458333,38.855949,65.971031)"
       id="g73" />
    <g
       clip-path="url(#clipPath902)"
       transform="matrix(0.26458333,0,0,0.26458333,38.855949,65.971031)"
       id="g75" />
    <g
       clip-path="url(#clipPath898)"
       transform="matrix(0.26458333,0,0,0.26458333,38.855949,65.971031)"
       id="g77" />
    <g
       clip-path="url(#clipPath894)"
       transform="matrix(0.26458333,0,0,0.26458333,38.855949,65.971031)"
       id="g79" />
    <g
       clip-path="url(#clipPath890)"
       transform="matrix(0.26458333,0,0,0.26458333,38.855949,65.971031)"
       id="g81" />
    <g
       clip-path="url(#clipPath886)"
       transform="matrix(0.26458333,0,0,0.26458333,38.855949,65.971031)"
       id="g83" />
    <g
       clip-path="url(#clipPath882)"
       transform="matrix(0.26458333,0,0,0.26458333,38.855949,65.971031)"
       id="g85" />
    <path
       clip-path="url(#clipPath878)"
       id="path53-4"
       d="m 86.194032,103.75681 c 0,-1.79203 -1.14036,-2.93238 -2.93238,-2.93238 1.79202,0 2.93238,-1.140886 2.93238,-2.932906 0,1.79202 1.14088,2.932906 2.93317,2.932906 -1.79229,0 -2.93317,1.14035 -2.93317,2.93238 z"
       style="fill:#fefcbf;fill-opacity:1;stroke-width:0.26458332" />
    <path
       clip-path="url(#clipPath874)"
       id="path53-7"
       d="m 59.86798,108.03312 c 0,-1.79202 -1.14036,-2.93237 -2.93238,-2.93237 1.79202,0 2.93238,-1.14089 2.93238,-2.93291 0,1.79202 1.14088,2.93291 2.93317,2.93291 -1.79229,0 -2.93317,1.14035 -2.93317,2.93237 z"
       style="fill:#f6e05e;fill-opacity:1;stroke-width:0.26458332" />
    <path
       clip-path="url(#clipPath870)"
       id="path53-1"
       d="m 67.618796,120.99569 c 0,-1.79202 -1.14036,-2.93237 -2.93238,-2.93237 1.79202,0 2.93238,-1.14089 2.93238,-2.93291 0,1.79202 1.14088,2.93291 2.93317,2.93291 -1.79229,0 -2.93317,1.14035 -2.93317,2.93237 z"
       style="fill:#efd378;stroke-width:0.26458332" />
  </g>
</svg>
